<mxfile host="app.diagrams.net" agent="Mozilla/5.0 (Windows NT 10.0; Win64; x64) AppleWebKit/537.36 (KHTML, like Gecko) Chrome/130.0.0.0 Safari/537.36" version="24.8.3">
  <diagram name="Página-1" id="mm60gf3sP_owbhB3dJmb">
    <mxGraphModel dx="978" dy="558" grid="1" gridSize="10" guides="1" tooltips="1" connect="1" arrows="1" fold="1" page="1" pageScale="1" pageWidth="827" pageHeight="1169" math="0" shadow="0">
      <root>
        <mxCell id="0" />
        <mxCell id="1" parent="0" />
        <mxCell id="TZZJIljO41qycS3H0XWo-1" value="" style="rounded=0;whiteSpace=wrap;html=1;" parent="1" vertex="1">
          <mxGeometry x="200" y="240" width="480" height="370" as="geometry" />
        </mxCell>
        <mxCell id="sXgH9hmUgr6o-m0y6AgL-3" value="Usuario registrado&lt;div&gt;&lt;br&gt;&lt;/div&gt;" style="shape=umlActor;verticalLabelPosition=bottom;verticalAlign=top;html=1;" parent="1" vertex="1">
          <mxGeometry x="90" y="330" width="30" height="60" as="geometry" />
        </mxCell>
        <mxCell id="sXgH9hmUgr6o-m0y6AgL-12" value="Iniciar Sesión" style="ellipse;whiteSpace=wrap;html=1;" parent="1" vertex="1">
          <mxGeometry x="240" y="325" width="120" height="65" as="geometry" />
        </mxCell>
        <mxCell id="sXgH9hmUgr6o-m0y6AgL-13" value="Validar Usuario" style="ellipse;whiteSpace=wrap;html=1;" parent="1" vertex="1">
          <mxGeometry x="510" y="290" width="130" height="70" as="geometry" />
        </mxCell>
        <mxCell id="sXgH9hmUgr6o-m0y6AgL-14" value="Validar Contraseña" style="ellipse;whiteSpace=wrap;html=1;" parent="1" vertex="1">
          <mxGeometry x="510" y="380" width="130" height="70" as="geometry" />
        </mxCell>
        <mxCell id="sXgH9hmUgr6o-m0y6AgL-15" value="&amp;lt;&amp;lt;include&amp;gt;&amp;gt;" style="endArrow=open;endSize=12;dashed=1;html=1;rounded=0;exitX=1.008;exitY=0.308;exitDx=0;exitDy=0;exitPerimeter=0;entryX=0;entryY=0.5;entryDx=0;entryDy=0;" parent="1" source="sXgH9hmUgr6o-m0y6AgL-12" target="sXgH9hmUgr6o-m0y6AgL-13" edge="1">
          <mxGeometry width="160" relative="1" as="geometry">
            <mxPoint x="360" y="330" as="sourcePoint" />
            <mxPoint x="500" y="330" as="targetPoint" />
          </mxGeometry>
        </mxCell>
        <mxCell id="sXgH9hmUgr6o-m0y6AgL-17" value="&amp;lt;&amp;lt;include&amp;gt;&amp;gt;" style="endArrow=open;endSize=12;dashed=1;html=1;rounded=0;entryX=0;entryY=0.5;entryDx=0;entryDy=0;exitX=1;exitY=1;exitDx=0;exitDy=0;" parent="1" source="sXgH9hmUgr6o-m0y6AgL-12" target="sXgH9hmUgr6o-m0y6AgL-14" edge="1">
          <mxGeometry width="160" relative="1" as="geometry">
            <mxPoint x="360" y="400" as="sourcePoint" />
            <mxPoint x="520" y="400" as="targetPoint" />
          </mxGeometry>
        </mxCell>
        <mxCell id="sXgH9hmUgr6o-m0y6AgL-19" value="" style="endArrow=none;html=1;rounded=0;" parent="1" target="sXgH9hmUgr6o-m0y6AgL-12" edge="1">
          <mxGeometry relative="1" as="geometry">
            <mxPoint x="130" y="360" as="sourcePoint" />
            <mxPoint x="290" y="360" as="targetPoint" />
          </mxGeometry>
        </mxCell>
        <mxCell id="TZZJIljO41qycS3H0XWo-8" value="Recuperar Contraseña" style="ellipse;whiteSpace=wrap;html=1;" parent="1" vertex="1">
          <mxGeometry x="240" y="485" width="120" height="65" as="geometry" />
        </mxCell>
        <mxCell id="TZZJIljO41qycS3H0XWo-9" value="Enviar Correo Electrónico de recuperación" style="ellipse;whiteSpace=wrap;html=1;" parent="1" vertex="1">
          <mxGeometry x="510" y="480" width="130" height="70" as="geometry" />
        </mxCell>
        <mxCell id="TZZJIljO41qycS3H0XWo-10" value="&amp;lt;&amp;lt;include&amp;gt;&amp;gt;" style="endArrow=open;endSize=12;dashed=1;html=1;rounded=0;exitX=1.008;exitY=0.308;exitDx=0;exitDy=0;exitPerimeter=0;entryX=0;entryY=0.5;entryDx=0;entryDy=0;" parent="1" target="TZZJIljO41qycS3H0XWo-9" edge="1">
          <mxGeometry width="160" relative="1" as="geometry">
            <mxPoint x="370.96000000000004" y="515.02" as="sourcePoint" />
            <mxPoint x="530" y="500" as="targetPoint" />
          </mxGeometry>
        </mxCell>
        <mxCell id="TZZJIljO41qycS3H0XWo-11" value="&amp;lt;&amp;lt;extends&amp;gt;&amp;gt;" style="endArrow=open;startArrow=none;endFill=0;startFill=0;endSize=8;html=1;verticalAlign=bottom;dashed=1;labelBackgroundColor=none;rounded=0;entryX=0.5;entryY=1;entryDx=0;entryDy=0;exitX=0.5;exitY=0;exitDx=0;exitDy=0;" parent="1" source="TZZJIljO41qycS3H0XWo-8" target="sXgH9hmUgr6o-m0y6AgL-12" edge="1">
          <mxGeometry width="160" relative="1" as="geometry">
            <mxPoint x="330" y="490" as="sourcePoint" />
            <mxPoint x="490" y="490" as="targetPoint" />
          </mxGeometry>
        </mxCell>
        <mxCell id="k1VC2RBAKOUMl9DpLmfR-6" value="&lt;div&gt;Profesor&lt;/div&gt;" style="shape=umlActor;verticalLabelPosition=bottom;verticalAlign=top;html=1;outlineConnect=0;" vertex="1" parent="1">
          <mxGeometry x="48" y="462" width="30" height="60" as="geometry" />
        </mxCell>
        <mxCell id="k1VC2RBAKOUMl9DpLmfR-7" value="Jefe de área" style="shape=umlActor;verticalLabelPosition=bottom;verticalAlign=top;html=1;outlineConnect=0;" vertex="1" parent="1">
          <mxGeometry x="132" y="462" width="30" height="60" as="geometry" />
        </mxCell>
        <mxCell id="k1VC2RBAKOUMl9DpLmfR-8" value="" style="endArrow=classic;html=1;rounded=0;" edge="1" parent="1">
          <mxGeometry width="50" height="50" relative="1" as="geometry">
            <mxPoint x="72" y="460" as="sourcePoint" />
            <mxPoint x="102" y="420" as="targetPoint" />
          </mxGeometry>
        </mxCell>
        <mxCell id="k1VC2RBAKOUMl9DpLmfR-9" value="" style="endArrow=classic;html=1;rounded=0;" edge="1" parent="1">
          <mxGeometry width="50" height="50" relative="1" as="geometry">
            <mxPoint x="142" y="460" as="sourcePoint" />
            <mxPoint x="112" y="420" as="targetPoint" />
          </mxGeometry>
        </mxCell>
      </root>
    </mxGraphModel>
  </diagram>
</mxfile>
